<svg width="14" height="14" viewBox="0 0 14 14" fill="none" xmlns="http://www.w3.org/2000/svg">
<path d="M6.25001 6.99991C6.25001 7.19882 6.32903 7.38959 6.46968 7.53024C6.61033 7.67089 6.80109 7.7499 7 7.7499C7.19891 7.7499 7.38967 7.67089 7.53032 7.53024C7.67097 7.38959 7.74999 7.19882 7.74999 6.99991C7.74999 6.801 7.67097 6.61024 7.53032 6.46959C7.38967 6.32894 7.19891 6.24992 7 6.24992C6.80109 6.24992 6.61033 6.32894 6.46968 6.46959C6.32903 6.61024 6.25001 6.801 6.25001 6.99991ZM9.37497 6.99991C9.37497 7.19882 9.45399 7.38959 9.59464 7.53024C9.73529 7.67089 9.92605 7.7499 10.125 7.7499C10.3239 7.7499 10.5146 7.67089 10.6553 7.53024C10.7959 7.38959 10.875 7.19882 10.875 6.99991C10.875 6.801 10.7959 6.61024 10.6553 6.46959C10.5146 6.32894 10.3239 6.24992 10.125 6.24992C9.92605 6.24992 9.73529 6.32894 9.59464 6.46959C9.45399 6.61024 9.37497 6.801 9.37497 6.99991ZM3.12505 6.99991C3.12505 7.19882 3.20407 7.38959 3.34472 7.53024C3.48537 7.67089 3.67613 7.7499 3.87504 7.7499C4.07395 7.7499 4.26471 7.67089 4.40536 7.53024C4.54601 7.38959 4.62503 7.19882 4.62503 6.99991C4.62503 6.801 4.54601 6.61024 4.40536 6.46959C4.26471 6.32894 4.07395 6.24992 3.87504 6.24992C3.67613 6.24992 3.48537 6.32894 3.34472 6.46959C3.20407 6.61024 3.12505 6.801 3.12505 6.99991ZM13.4562 4.28745C13.1031 3.44839 12.5968 2.69528 11.9515 2.04841C11.3107 1.40529 10.55 0.894085 9.71247 0.543743C8.8531 0.18281 7.94061 0 7 0H6.96875C6.02189 0.00468744 5.10471 0.192185 4.24222 0.56093C3.41185 0.914866 2.65828 1.42698 2.0235 2.06872C1.38445 2.71403 0.88289 3.46402 0.536019 4.29995C0.176649 5.16556 -0.0045988 6.08586 8.86437e-05 7.03272C0.00539053 8.11782 0.262104 9.18693 0.750079 10.1561V12.5311C0.750079 12.7217 0.825804 12.9045 0.960594 13.0393C1.09538 13.1741 1.2782 13.2498 1.46882 13.2498H3.84535C4.81455 13.7378 5.88365 13.9945 6.96875 13.9998H7.00156C7.93749 13.9998 8.84529 13.8186 9.69997 13.4639C10.5333 13.1177 11.2911 12.6125 11.9312 11.9764C12.5765 11.3374 13.0843 10.5905 13.439 9.75769C13.8077 8.8952 13.9952 7.97802 13.9999 7.03116C14.0046 6.07961 13.8202 5.15619 13.4562 4.28745ZM11.0953 11.1311C9.99996 12.2155 8.54686 12.8123 7 12.8123H6.97344C6.03126 12.8077 5.09534 12.5733 4.26879 12.1327L4.13754 12.0623H1.93756V9.86238L1.86725 9.73113C1.42663 8.90458 1.19226 7.96865 1.18757 7.02647C1.18132 5.46868 1.77663 4.0062 2.8688 2.90465C3.95941 1.8031 5.41721 1.19374 6.975 1.18749H7.00156C7.7828 1.18749 8.54061 1.33905 9.25466 1.63904C9.95153 1.93123 10.5765 2.35153 11.114 2.88903C11.6499 3.42496 12.0718 4.05151 12.364 4.74838C12.6671 5.47024 12.8187 6.23586 12.8156 7.02647C12.8062 8.58271 12.1952 10.0405 11.0953 11.1311Z" fill="#34B9E0"/>
</svg>
