<svg width="7" height="13" viewBox="0 0 7 13" fill="none" xmlns="http://www.w3.org/2000/svg">
<path d="M6 3.32646H6.5V2.82646V1.07746V0.647433L6.07482 0.583087C5.88927 0.555007 5.32236 0.5 4.67011 0.5C3.89131 0.5 3.193 0.773249 2.69465 1.33166C2.20173 1.88399 1.95238 2.66098 1.95238 3.58454V4.625H1H0.5V5.125V7.08025V7.58025H1H1.95238V12V12.5H2.45238H4.23306H4.73306V12V7.58071H5.6267H6.07331L6.12353 7.13692L6.34476 5.18167L6.40769 4.62546H5.84793H4.73265L4.73265 3.77879C4.73265 3.77868 4.73265 3.77858 4.73265 3.77848C4.73265 3.77846 4.73265 3.77844 4.73265 3.77842C4.73288 3.51035 4.77211 3.41687 4.79326 3.38835L4.79337 3.3882C4.79706 3.38322 4.80465 3.37298 4.83617 3.36047C4.87436 3.34531 4.95044 3.32646 5.08716 3.32646H6Z" stroke="#FFF2E4"/>
</svg>
