<svg width="11" height="13" viewBox="0 0 11 13" fill="none" xmlns="http://www.w3.org/2000/svg">
<path d="M10.9229 3.00138C10.5682 1.0269 8.65248 -0.292947 6.64364 0.0559181C4.63409 0.40412 2.93762 1.92361 3.29228 3.89941C3.36773 4.32454 3.57996 4.98978 3.83028 5.46797L0.181367 10.5902C0.0466924 10.7792 -0.0294588 11.1201 0.0107321 11.3469L0.245532 12.6542C0.253959 12.7071 0.273439 12.758 0.302849 12.8038C0.332259 12.8497 0.371019 12.8896 0.416895 12.9213C0.462772 12.953 0.514859 12.9758 0.570158 12.9885C0.625456 13.0011 0.682874 13.0034 0.739104 12.9951L1.80804 12.8087C2.03931 12.7696 2.33264 12.5779 2.45956 12.3849L3.9029 10.1889L3.91559 10.1743L4.89287 10.0045L6.57806 7.43183C7.13157 7.52402 7.92622 7.49285 8.39582 7.41127C10.404 7.06241 11.2776 4.97717 10.9229 3.00138ZM9.14252 4.01415C8.58972 4.79014 8.02564 4.24363 7.23663 3.69911C6.44762 3.15657 5.73123 2.8223 6.28333 2.04631C6.83613 1.27031 7.9234 1.08129 8.71382 1.62515C9.50354 2.16834 9.69462 3.23815 9.14252 4.01415Z" fill="#FFF2E4"/>
</svg>
