<svg  viewBox="0 0 120 51"  xmlns="http://www.w3.org/2000/svg">
<path d="M11.7778 18.035H13.2082C13.2995 18.6919 13.543 19.1995 13.9995 19.4981C14.456 19.7967 15.0342 19.946 15.7038 19.946C16.0385 19.946 16.3429 19.9162 16.6472 19.8564C16.9211 19.7967 17.195 19.6773 17.4081 19.5578C17.6211 19.4085 17.8037 19.2592 17.9254 19.0502C18.0472 18.8412 18.108 18.6322 18.108 18.3635C18.108 17.9454 17.9863 17.5871 17.7428 17.3482C17.4994 17.1094 17.1037 16.9003 16.5863 16.751L14.6082 16.2136C13.7865 16.0045 13.1473 15.6462 12.7517 15.1983C12.3561 14.7504 12.143 14.1533 12.143 13.4068C12.143 13.0485 12.2343 12.6901 12.3865 12.3617C12.5387 12.0332 12.7821 11.7645 13.0865 11.5256C13.3908 11.2867 13.756 11.1076 14.1821 10.9583C14.6082 10.809 15.0647 10.7493 15.6125 10.7493C16.0994 10.7493 16.5559 10.809 16.982 10.9284C17.4081 11.0479 17.7733 11.227 18.108 11.4659C18.4428 11.7048 18.6863 12.0034 18.8993 12.3915C19.1123 12.7499 19.2341 13.1978 19.2645 13.7054H17.8341C17.8037 13.3769 17.7124 13.1082 17.5907 12.8693C17.4689 12.6603 17.2863 12.4811 17.0733 12.3318C16.8603 12.2124 16.6472 12.1228 16.4037 12.0631C16.1603 12.0034 15.8864 11.9735 15.6125 11.9735C14.9734 11.9735 14.456 12.0929 14.0908 12.3617C13.7256 12.6006 13.543 12.9589 13.543 13.4068C13.543 13.8845 13.6647 14.213 13.9386 14.4519C14.2125 14.6907 14.6082 14.8699 15.1864 15.0192L16.7994 15.4671C17.2255 15.5865 17.6211 15.7358 17.9559 15.8851C18.2906 16.0344 18.595 16.2434 18.808 16.4524C19.0515 16.6913 19.2036 16.9601 19.3254 17.2587C19.4471 17.5572 19.508 17.9156 19.508 18.3336C19.508 18.7815 19.4167 19.1697 19.2036 19.528C18.9906 19.8863 18.7167 20.1849 18.3819 20.4238C18.0472 20.6626 17.6515 20.8717 17.1646 20.9911C16.7081 21.1105 16.2211 21.2001 15.7038 21.2001C15.1864 21.2001 14.7299 21.1404 14.2734 21.021C13.8169 20.9015 13.4212 20.7224 13.056 20.4536C12.6908 20.1849 12.4169 19.8863 12.1735 19.4981C11.9604 19.0502 11.8387 18.5725 11.7778 18.035Z" />
<path d="M44.707 20.9315L48.2069 10.9883H49.7895L53.2893 20.9315H51.7981L50.9764 18.483H46.9896L46.1678 20.9315H44.707ZM47.3852 17.3484H50.6112L49.0286 12.541H48.9677L47.3852 17.3484Z" />
<path d="M78.3062 16.0647C78.3062 15.2286 78.3975 14.4821 78.5801 13.8551C78.7627 13.1982 79.0061 12.6607 79.3713 12.1829C79.7061 11.735 80.1626 11.3767 80.68 11.1379C81.2278 10.899 81.8364 10.7795 82.5668 10.7795C83.0842 10.7795 83.5407 10.8393 83.9668 10.9886C84.3929 11.1379 84.7885 11.317 85.0928 11.5857C85.3972 11.8545 85.6711 12.1829 85.8841 12.5413C86.0971 12.9294 86.1884 13.3475 86.2189 13.7954H84.8189C84.7581 13.1982 84.5146 12.7503 84.119 12.4517C83.7233 12.1232 83.1755 11.9739 82.4451 11.9739C82.0799 11.9739 81.7147 12.0336 81.4104 12.1531C81.106 12.2725 80.8321 12.4517 80.6191 12.6607C80.4061 12.8697 80.2235 13.1384 80.1017 13.437C79.98 13.7356 79.9191 14.0641 79.9191 14.4224V17.4979C79.9191 17.8562 79.98 18.1847 80.1322 18.4534C80.2539 18.752 80.4365 19.0208 80.68 19.2298C80.9234 19.4388 81.1973 19.618 81.5017 19.7374C81.8364 19.8568 82.1712 19.9166 82.5364 19.9166C83.3277 19.9166 83.9364 19.7075 84.3624 19.2895C84.7885 18.8715 85.0015 18.2743 85.0015 17.4979V16.841H82.6886V15.5869H86.4015V20.9019H85.0624L85.0015 19.8568C84.7581 20.245 84.4233 20.5436 83.9972 20.7825C83.6016 21.0214 83.0538 21.1408 82.4147 21.1408C81.7756 21.1408 81.1973 21.0214 80.68 20.7825C80.1626 20.5436 79.7365 20.2151 79.4018 19.7673C79.067 19.3194 78.7931 18.7819 78.6105 18.1548C78.3975 17.5278 78.3062 16.841 78.3062 16.0647Z" />
<path d="M111.418 20.9315L114.918 10.9883H116.5L120 20.9315H118.509L117.687 18.483H113.7L112.879 20.9315H111.418ZM114.066 17.3484H117.292L115.74 12.541H115.679L114.066 17.3484Z" />
<path d="M11.687 30.9643C11.687 30.158 11.7783 29.4116 11.9305 28.7845C12.1131 28.1276 12.3566 27.5901 12.6913 27.1124C13.0261 26.6645 13.4826 26.3062 14 26.0673C14.5173 25.8284 15.1565 25.709 15.8564 25.709C16.3434 25.709 16.7999 25.7687 17.2259 25.918C17.652 26.0673 18.0172 26.2465 18.352 26.5152C18.6563 26.7839 18.9302 27.1124 19.1128 27.4707C19.2954 27.8589 19.4172 28.2769 19.4476 28.7248H18.0172C17.9563 28.1276 17.7129 27.6797 17.3172 27.3811C16.9216 27.0527 16.3738 26.9034 15.7347 26.9034C15.3695 26.9034 15.0347 26.9631 14.7304 27.0825C14.426 27.202 14.1521 27.3811 13.9391 27.5901C13.7261 27.7992 13.5435 28.0679 13.4217 28.3665C13.3 28.6651 13.2391 28.9935 13.2391 29.3518V32.4274C13.2391 32.7857 13.3 33.1141 13.4522 33.3829C13.5739 33.6815 13.7565 33.9502 14 34.1592C14.2434 34.3682 14.5173 34.5474 14.8217 34.6668C15.126 34.7863 15.4608 34.846 15.826 34.846C16.4955 34.846 17.0433 34.6967 17.4694 34.3981C17.8955 34.0995 18.1389 33.6218 18.1998 32.935H19.6302C19.5998 33.4127 19.478 33.8308 19.2954 34.2189C19.0824 34.6071 18.8085 34.9356 18.5042 35.2043C18.1694 35.473 17.7737 35.6821 17.3172 35.8314C16.8607 35.9807 16.3738 36.0702 15.8869 36.0702C15.2173 36.0702 14.6086 35.9508 14.0913 35.7119C13.5739 35.473 13.1478 35.1147 12.7826 34.6668C12.4479 34.2189 12.174 33.6815 11.9913 33.0544C11.7783 32.4274 11.687 31.7406 11.687 30.9643Z" />
<path d="M48.2983 35.8312V25.8879H49.7287V35.8312H48.2983Z" />
<path d="M29.3685 0L19.5993 2.56792L9.79964 5.1657L0 7.73362L0.395638 9.0773L10.1648 6.50938L19.9645 3.9116L29.7337 1.34368L29.3685 0Z" />
<path d="M78.6104 27.142V25.8879H86.0666V27.142H83.0537V35.8312H81.6233V27.142H78.6104Z" />
<path d="M111.631 25.8879H113.183L115.709 30.5162L118.296 25.8879H119.787L116.409 31.8897V35.8312H114.979V31.8598L111.631 25.8879Z" />
<path d="M11.7778 47.835H13.2082C13.2995 48.492 13.543 48.9996 13.9995 49.2982C14.456 49.5968 15.0342 49.7461 15.7038 49.7461C16.0385 49.7461 16.3429 49.7162 16.6472 49.6565C16.9211 49.5968 17.195 49.4773 17.4081 49.3579C17.6211 49.2086 17.8037 49.0593 17.9254 48.8503C18.0472 48.6413 18.108 48.4322 18.108 48.1635C18.108 47.7455 17.9863 47.3872 17.7428 47.1483C17.4994 46.9094 17.1037 46.7004 16.5863 46.5511L14.6082 46.0136C13.7865 45.8046 13.1473 45.4463 12.7517 44.9984C12.3561 44.5505 12.143 43.9533 12.143 43.2068C12.143 42.8485 12.2343 42.4902 12.3865 42.1617C12.5387 41.8333 12.7821 41.5645 13.0865 41.3257C13.3908 41.0868 13.756 40.9076 14.1821 40.7583C14.6082 40.609 15.0647 40.5493 15.6125 40.5493C16.0994 40.5493 16.5559 40.609 16.982 40.7285C17.4081 40.8479 17.7733 41.0271 18.108 41.2659C18.4428 41.5048 18.6863 41.8034 18.8993 42.1916C19.1123 42.5499 19.2341 42.9978 19.2645 43.5054H17.8341C17.8037 43.177 17.7124 42.9082 17.5907 42.6693C17.4689 42.4603 17.2863 42.2812 17.0733 42.1319C16.8603 42.0124 16.6472 41.9229 16.4037 41.8631C16.1603 41.8034 15.8864 41.7736 15.6125 41.7736C14.9734 41.7736 14.456 41.893 14.0908 42.1617C13.7256 42.4006 13.543 42.7589 13.543 43.2068C13.543 43.6846 13.6647 44.013 13.9386 44.2519C14.2125 44.4908 14.6082 44.6699 15.1864 44.8192L16.7994 45.2671C17.2255 45.3866 17.6211 45.5359 17.9559 45.6852C18.2906 45.8345 18.595 46.0435 18.808 46.2525C19.0515 46.4914 19.2036 46.7601 19.3254 47.0587C19.4471 47.3573 19.508 47.7156 19.508 48.1336C19.508 48.5815 19.4167 48.9697 19.2036 49.328C18.9906 49.6863 18.7167 49.9849 18.3819 50.2238C18.0472 50.4627 17.6515 50.6717 17.1646 50.7911C16.7081 50.9106 16.2211 51.0002 15.7038 51.0002C15.1864 51.0002 14.7299 50.9404 14.2734 50.821C13.8169 50.7016 13.4212 50.5224 13.056 50.2537C12.6908 49.9849 12.4169 49.6863 12.1735 49.2982C11.9604 48.8503 11.8387 48.3725 11.7778 47.835Z" />
<path d="M37.4336 50.7313V40.7881H41.2682C41.8769 40.7881 42.3638 40.8478 42.7595 40.9672C43.1551 41.0867 43.4595 41.2658 43.7334 41.5346C43.9768 41.8033 44.1594 42.1318 44.2812 42.5199C44.4029 42.9081 44.4333 43.356 44.4333 43.8039C44.4333 44.2518 44.3725 44.6997 44.2203 45.0879C44.0986 45.5059 43.8855 45.8343 43.5812 46.1329C43.0334 46.6704 42.2421 46.9391 41.2682 46.9391H38.8335V50.7313H37.4336ZM38.8335 45.685H41.7856C42.1204 45.685 42.3943 45.5656 42.6073 45.3566C42.8203 45.1476 42.9116 44.8788 42.9116 44.5504V43.0873C42.9116 42.7588 42.8203 42.4901 42.6073 42.2811C42.3943 42.072 42.1204 41.9825 41.7856 41.9825H38.8335V45.685Z" />
<path d="M61.6284 50.7313L65.1283 40.7881H66.7108L70.2107 50.7313H68.7195L67.8978 48.2828H63.9109L63.0892 50.7313H61.6284ZM64.2762 47.1183H67.5021L65.9196 42.3109H65.8587L64.2762 47.1183Z" />
<path d="M86.9492 45.8344C86.9492 45.0282 87.0405 44.2817 87.1927 43.6546C87.3753 42.9977 87.6188 42.4603 87.9535 41.9825C88.2883 41.5346 88.7448 41.1763 89.2622 40.9374C89.7796 40.6985 90.4187 40.5791 91.1186 40.5791C91.6056 40.5791 92.0621 40.6388 92.4882 40.7881C92.9142 40.9374 93.2794 41.1166 93.6142 41.3853C93.9185 41.654 94.1924 41.9825 94.375 42.3408C94.5576 42.729 94.6794 43.147 94.7098 43.5949H93.2794C93.2186 42.9977 92.9751 42.5498 92.5795 42.2512C92.1838 41.9228 91.636 41.7735 90.9969 41.7735C90.6317 41.7735 90.2969 41.8332 89.9926 41.9526C89.6883 42.0721 89.4143 42.2512 89.2013 42.4602C88.9883 42.6693 88.8057 42.938 88.6839 43.2366C88.5622 43.5352 88.5013 43.8636 88.5013 44.222V47.2975C88.5013 47.6558 88.5622 47.9843 88.7144 48.253C88.8361 48.5516 89.0187 48.8203 89.2622 49.0293C89.5057 49.2384 89.7795 49.4175 90.0839 49.5369C90.3882 49.6564 90.723 49.7161 91.0882 49.7161C91.7577 49.7161 92.3056 49.5668 92.7316 49.2682C93.1577 48.9696 93.4012 48.4919 93.462 47.8051H94.8924C94.862 48.2829 94.7402 48.7009 94.5576 49.0891C94.3446 49.4772 94.0707 49.8057 93.7664 50.0744C93.4316 50.3432 93.036 50.5522 92.5795 50.7015C92.1229 50.8508 91.636 50.9403 91.1491 50.9403C90.4795 50.9403 89.8709 50.8209 89.3535 50.582C88.8361 50.3432 88.41 49.9848 88.0448 49.5369C87.7101 49.0891 87.4362 48.5516 87.2536 47.9245C87.0405 47.3273 86.9492 46.6107 86.9492 45.8344Z" />
<path d="M112.331 50.7313V40.7881H119.056V42.0422H113.761V45.058H118.387V46.3121H113.761V49.5071H119.056V50.7612H112.331V50.7313Z" />
</svg>
