<svg width="14" height="11" viewBox="0 0 14 11" fill="none" xmlns="http://www.w3.org/2000/svg">
<path d="M6.84715 5.24975L0 1.7089V0.874958C0 0.628876 0.0846978 0.421529 0.254093 0.252917C0.423489 0.0843058 0.624089 0 0.855894 0H12.8384C13.0702 0 13.2708 0.0843058 13.4402 0.252917C13.6096 0.421529 13.6943 0.628876 13.6943 0.874958V1.7089L6.84715 5.24975ZM6.4192 6.1247H7.2751L13.6943 2.72057V9.62453C13.6943 9.8615 13.6096 10.0666 13.4402 10.2397C13.2708 10.4129 13.0702 10.4995 12.8384 10.4995H0.855894C0.624089 10.4995 0.423489 10.4129 0.254093 10.2397C0.0846978 10.0666 0 9.8615 0 9.62453V2.72057L6.4192 6.1247Z" fill="#34B9E0"/>
</svg>
