<svg width="11" height="15" viewBox="0 0 11 15" fill="none" xmlns="http://www.w3.org/2000/svg">
<path d="M5.13171 14.662C1.71033 10.1974 0 7.02091 0 5.13171C-1.0042e-08 4.4578 0.132736 3.7905 0.390628 3.16789C0.648521 2.54528 1.02652 1.97957 1.50304 1.50304C1.97957 1.02652 2.54528 0.648521 3.16789 0.390628C3.7905 0.132736 4.45781 0 5.13171 0C5.80562 0 6.47293 0.132736 7.09553 0.390628C7.71814 0.648521 8.28386 1.02652 8.76038 1.50304C9.2369 1.97957 9.6149 2.54528 9.8728 3.16789C10.1307 3.7905 10.2634 4.4578 10.2634 5.13171C10.2634 7.02091 8.5531 10.1974 5.13171 14.662ZM5.13171 8.06412C5.90944 8.06412 6.6553 7.75517 7.20524 7.20523C7.75517 6.6553 8.06412 5.90943 8.06412 5.13171C8.06412 4.35399 7.75517 3.60812 7.20524 3.05819C6.6553 2.50825 5.90944 2.1993 5.13171 2.1993C4.35399 2.1993 3.60812 2.50825 3.05819 3.05819C2.50825 3.60812 2.19931 4.35399 2.19931 5.13171C2.19931 5.90943 2.50825 6.6553 3.05819 7.20523C3.60812 7.75517 4.35399 8.06412 5.13171 8.06412V8.06412Z" fill="#34B9E0"/>
</svg>
