<svg viewBox="0 0 23 36" xmlns="http://www.w3.org/2000/svg">
<path d="M11.5 36C10.8285 36 9.90511 35.9161 8.98175 35.8322C3.86131 35.2867 0 31.0909 0 25.9301V10.0699C0 4.90909 3.81934 0.713287 8.98175 0.167832C9.90511 0.0839161 10.8285 0 11.5 0C12.1715 0 13.0949 0.0839161 14.0183 0.167832C19.1807 0.713287 23 4.90909 23 10.0699V25.8881C23 31.049 19.1807 35.2448 14.0183 35.7902C13.1369 35.9161 12.2135 36 11.5 36ZM11.5 1.55245C10.8285 1.55245 10.031 1.63636 9.10767 1.72028C4.7427 2.18182 1.51095 5.79021 1.51095 10.0699V25.8881C1.51095 30.2517 4.7427 33.8601 9.10767 34.2378C10.031 34.3217 10.8704 34.4056 11.5 34.4056C12.1296 34.4056 12.969 34.3217 13.8923 34.2378C18.1734 33.7762 21.4891 30.1678 21.4891 25.8881V10.0699C21.4891 5.70629 18.2573 2.0979 13.8923 1.72028C12.969 1.59441 12.2135 1.55245 11.5 1.55245Z" />
<path class="bounce-infinite" d="M11.4998 30.6294C12.7747 30.6294 13.8082 29.5962 13.8082 28.3217C13.8082 27.0472 12.7747 26.014 11.4998 26.014C10.2249 26.014 9.19141 27.0472 9.19141 28.3217C9.19141 29.5962 10.2249 30.6294 11.4998 30.6294Z" />
</svg>
