<svg width="29" height="29" viewBox="0 0 29 29" fill="none" xmlns="http://www.w3.org/2000/svg">
<g clip-path="url(#clip0)">
<path d="M23.5361 16.8031C23.1593 16.4316 22.3226 16.2353 21.0489 16.2176C20.0484 16.2187 19.0492 16.292 18.0593 16.4369C17.571 16.1557 17.0669 15.8478 16.6724 15.4781C15.6092 14.4857 14.7212 13.1077 14.1692 11.5916C14.2046 11.4501 14.2364 11.3263 14.2647 11.1989C14.2647 11.1989 14.8644 7.7971 14.7052 6.64725C14.6935 6.53583 14.6673 6.42642 14.6274 6.32175L14.5761 6.18731C14.4133 5.81228 14.0932 5.41425 13.5925 5.43548L13.29 5.42664C12.731 5.42664 12.2764 5.71145 12.1579 6.13955C11.7952 7.47868 12.1702 9.4812 12.8478 12.0746L12.6744 12.4974C12.1879 13.6826 11.5794 14.8767 11.0416 15.9292L10.9709 16.0654C10.4048 17.1728 9.89177 18.1122 9.42652 18.9082L8.94712 19.163C8.91174 19.1807 8.08915 19.6176 7.89633 19.7344C6.25823 20.7126 5.17383 21.8218 4.99339 22.7027C4.93678 22.984 4.97924 23.3431 5.26935 23.5094L5.7346 23.7429C5.93029 23.8424 6.14661 23.8945 6.36614 23.8951C7.53191 23.8951 8.88697 22.4427 10.7533 19.186C12.9592 18.4728 15.2182 17.9357 17.5091 17.5797C19.1472 18.5014 21.1621 19.1417 22.4322 19.1417C22.6587 19.1417 22.8533 19.1205 23.0107 19.0781C23.2437 19.0213 23.4481 18.8817 23.5856 18.6853C23.8315 18.3138 23.8828 17.8026 23.8156 17.279C23.7733 17.0949 23.6765 16.9278 23.5379 16.7996L23.5361 16.8031ZM6.11317 23.0106C6.32545 22.4286 7.1675 21.2787 8.41288 20.258C8.49071 20.1943 8.68354 20.0139 8.86044 19.8458C7.55845 21.9226 6.68633 22.7505 6.11317 23.0088V23.0106ZM13.4882 6.0281C13.8632 6.0281 14.0772 6.97275 14.0949 7.85902C14.1126 8.74529 13.9056 9.36798 13.6491 9.82792C13.4369 9.14685 13.3325 8.07307 13.3325 7.37077C13.3325 7.37077 13.3166 6.0281 13.4882 6.0281ZM11.2875 18.1299C11.5493 17.6628 11.82 17.1693 12.0977 16.6457C12.7752 15.3649 13.2016 14.3637 13.52 13.5411C14.1179 14.649 14.9142 15.6378 15.8692 16.4582C15.9842 16.5555 16.1081 16.6545 16.2354 16.7518C14.3497 17.1251 12.7204 17.5779 11.2857 18.1299H11.2875ZM23.1752 18.0237C23.0602 18.0963 22.7312 18.1369 22.5207 18.1369C21.8379 18.1369 20.9923 17.8256 19.8088 17.3161C20.2634 17.2825 20.6809 17.2648 21.056 17.2648C21.7406 17.2648 21.944 17.2613 22.6127 17.4329C23.2814 17.6045 23.2902 17.9512 23.1752 18.022V18.0237Z" fill="#FF554C"/>
<path d="M25.6325 6.84006C25.0187 6.00332 24.1625 5.02329 23.2231 4.08395C22.2838 3.14461 21.3038 2.28841 20.467 1.67456C19.0412 0.629081 18.3495 0.508789 17.9533 0.508789H4.24348C3.02464 0.508789 2.03223 1.5012 2.03223 2.72005V26.6016C2.03223 27.8205 3.02464 28.8129 4.24348 28.8129H24.587C25.8059 28.8129 26.7983 27.8205 26.7983 26.6016V9.35382C26.7983 8.95756 26.678 8.26588 25.6325 6.84006ZM21.9707 5.33641C22.8198 6.18553 23.485 6.94974 23.9767 7.58481H19.7205V3.33035C20.3556 3.82214 21.1216 4.48728 21.9689 5.33641H21.9707ZM25.0293 26.6016C25.0293 26.8422 24.8276 27.0439 24.587 27.0439H4.24348C4.12662 27.0425 4.01493 26.9955 3.93229 26.9128C3.84965 26.8302 3.80261 26.7185 3.80123 26.6016V2.72005C3.80123 2.48123 4.00467 2.27779 4.24348 2.27779H17.9533V8.46932C17.9533 8.7039 18.0465 8.92888 18.2123 9.09475C18.3782 9.26063 18.6032 9.35382 18.8378 9.35382H25.0293V26.6016Z" fill="#FF554C"/>
</g>
<defs>
<clipPath id="clip0">
<rect width="28.3041" height="28.3041" fill="white" transform="translate(0.263184 0.508789)"/>
</clipPath>
</defs>
</svg>
