<svg viewBox="0 0 17 17" xmlns="http://www.w3.org/2000/svg">
	<path d="M2.68031 0.0154878C2.56275 -0.0080877 2.42168 -0.00809346 2.32763 0.0390576C1.05798 0.534144 0.258572 2.34946 0.0704761 3.59897C-0.517324 7.65396 2.68031 11.1667 5.61931 13.4771C8.22914 15.5282 13.2372 18.8995 16.1997 15.6461C16.5759 15.2453 17.0226 14.6559 16.9991 14.0665C16.9286 13.0763 16.0116 12.3691 15.3062 11.8268C14.7655 11.426 13.6369 10.318 12.9315 10.3416C12.2967 10.3651 11.897 11.0253 11.4973 11.4261L10.7919 12.1333C10.6744 12.2512 9.16962 11.261 9.00503 11.1431C8.39372 10.7424 7.80592 10.2944 7.28866 9.79934C6.77139 9.30425 6.30115 8.76201 5.90145 8.1962C5.78389 8.03117 4.8199 6.59306 4.91395 6.47519C4.91395 6.47519 5.73687 5.57931 5.97199 5.22568C6.46574 4.47126 6.84193 3.88187 6.27764 2.986C6.06603 2.65594 5.8074 2.39662 5.52526 2.11371C5.03151 1.6422 4.53776 1.14711 3.97347 0.746324C3.66781 0.510569 3.15055 0.0862145 2.68031 0.0154878Z"/>
</svg>
