<svg width="13" height="13" viewBox="0 0 13 13" fill="none" xmlns="http://www.w3.org/2000/svg">
<path d="M0 6.51269C0 5.3342 0.291802 4.24452 0.875407 3.24366C1.45901 2.24279 2.24984 1.45196 3.24789 0.871178C4.24593 0.290393 5.33138 0 6.50423 0C7.38386 0 8.22403 0.17198 9.02472 0.51594C9.82542 0.8599 10.5162 1.32227 11.0969 1.90306C11.6777 2.48384 12.1401 3.17599 12.4841 3.97951C12.828 4.78302 13 5.62741 13 6.51269C13 7.39232 12.828 8.2339 12.4841 9.03741C12.1401 9.84092 11.6777 10.5317 11.0969 11.1096C10.5162 11.6876 9.82542 12.1471 9.02472 12.4883C8.22403 12.8294 7.38386 13 6.50423 13C5.61895 13 4.77456 12.828 3.97105 12.4841C3.16753 12.1401 2.47538 11.6777 1.8946 11.0969C1.31381 10.5162 0.852852 9.82683 0.511711 9.02895C0.17057 8.23108 0 7.39232 0 6.51269ZM1.42941 6.51269C1.42941 7.88289 1.92843 9.07265 2.92648 10.082C3.92453 11.08 5.11711 11.5791 6.50423 11.5791C7.4177 11.5791 8.2635 11.3521 9.04164 10.8982C9.81978 10.4443 10.4372 9.82824 10.8939 9.0501C11.3507 8.27196 11.5791 7.42615 11.5791 6.51269C11.5791 5.59922 11.3507 4.75201 10.8939 3.97105C10.4372 3.19009 9.81978 2.57265 9.04164 2.11874C8.2635 1.66482 7.4177 1.43787 6.50423 1.43787C5.59076 1.43787 4.74496 1.66482 3.96682 2.11874C3.18868 2.57265 2.57124 3.19009 2.11451 3.97105C1.65777 4.75201 1.42941 5.59922 1.42941 6.51269ZM6.0052 6.51269V2.66428C6.0052 2.52895 6.05172 2.41477 6.14476 2.32173C6.2378 2.22869 6.35198 2.18217 6.48731 2.18217C6.62264 2.18217 6.73682 2.22869 6.82986 2.32173C6.9229 2.41477 6.96942 2.52895 6.96942 2.66428V6.21666L9.04164 7.42615C9.15441 7.49382 9.22772 7.59109 9.26155 7.71796C9.29538 7.84483 9.27846 7.96465 9.2108 8.07742C9.12058 8.24095 8.98243 8.32271 8.79636 8.32271C8.7005 8.32271 8.61874 8.30015 8.55107 8.25504L6.34353 6.96942C6.24767 6.94123 6.16732 6.88484 6.10247 6.80026C6.03763 6.71568 6.0052 6.61982 6.0052 6.51269Z" fill="#34B9E0"/>
</svg>
