<svg width="12" height="14" viewBox="0 0 12 14" fill="none" xmlns="http://www.w3.org/2000/svg">
<path d="M6.00028 0C3.03676 0 0.634399 2.46639 0.634399 5.50909C0.634399 8.55162 3.03676 11.0182 6.00028 11.0182C8.96379 11.0182 11.3659 8.55162 11.3659 5.50909C11.3659 2.46639 8.96379 0 6.00028 0ZM6.00028 8.99696C4.12406 8.99696 2.60301 7.43543 2.60301 5.50909C2.60301 3.58274 4.12406 2.02121 6.00028 2.02121C7.87634 2.02121 9.39724 3.5829 9.39724 5.50909C9.39724 7.43528 7.87634 8.99696 6.00028 8.99696Z" fill="#FFF2E4"/>
<path d="M7.65173 5.50911C6.73961 5.50911 6.00012 4.75002 6.00012 3.81338C6.00012 3.3449 6.18507 2.92101 6.4842 2.6142C6.32645 2.58658 6.16554 2.56915 6.00012 2.56915C4.41868 2.56915 3.13652 3.88542 3.13652 5.50927C3.13652 7.13311 4.41853 8.44938 6.00012 8.44938C7.58172 8.44938 8.86373 7.13311 8.86373 5.50927C8.86373 5.33943 8.84675 5.17422 8.81986 5.01225C8.52073 5.31922 8.10786 5.50911 7.65173 5.50911Z" fill="#FFF2E4"/>
<path d="M11.7105 10.6709L10.0194 9.83038C8.97449 10.8553 7.55967 11.4859 6.00031 11.4859C4.44095 11.4859 3.02598 10.8553 1.98105 9.83038L0.289478 10.6709C-0.0964926 10.8628 -0.0964926 11.1738 0.289478 11.3657L5.30094 13.8563C5.68706 14.0479 6.31296 14.0479 6.69908 13.8563L11.7104 11.3657C12.0965 11.1738 12.0965 10.8628 11.7105 10.6709Z" fill="#FFF2E4"/>
</svg>
