<svg width="153" height="50" viewBox="0 0 153 50" fill="none" xmlns="http://www.w3.org/2000/svg">
<path d="M55.2574 21.9699C55.2574 16.6148 52.8816 13.0447 49.1531 13.0447H43.0488V49.2281H47.5033V36.6845H49.1531C50.2089 36.6845 50.8029 37.6494 50.8029 39.0968V49.2281H55.2574V39.0968C55.2574 37.0222 54.6634 35.3819 53.5746 34.2723C54.6634 32.6803 55.2574 30.4609 55.2574 27.7593V21.9699ZM50.8029 27.7593C50.8029 29.2066 50.2089 30.1715 49.1531 30.1715H47.5033V19.5577H49.1531C50.2089 19.5577 50.8029 20.5225 50.8029 21.9699V27.7593Z" fill="white"/>
<path d="M72.6393 31.1846C73.2991 29.7373 73.6621 27.904 73.6621 25.8295V21.9699C73.6621 16.6148 71.2864 13.0447 67.5578 13.0447H61.4536V49.2281H67.8878C71.6163 49.2281 73.9921 45.658 73.9921 40.3029V37.167C73.9921 34.7547 73.4971 32.7284 72.6393 31.1846ZM65.908 19.5577H67.5578C68.6138 19.5577 69.2076 20.5225 69.2076 21.9699V25.8295C69.2076 27.2768 68.6138 28.2417 67.5578 28.2417H65.908V19.5577ZM69.5376 40.3029C69.5376 41.7502 68.9437 42.7151 67.8878 42.7151H65.908V34.7547H67.8878C68.9437 34.7547 69.5376 35.7197 69.5376 37.167V40.3029Z" fill="white"/>
<path d="M87.4152 13.0447H82.5977L77.9124 49.2281H82.4658L83.0597 43.5835H86.8872L87.4482 49.2281H92.0016L87.4152 13.0447ZM83.7196 37.0704L85.0064 24.7682L86.2274 37.0704H83.7196Z" fill="white"/>
<path d="M104.438 13.0447V31.5706L99.9837 13.0447H96.6841V49.2281H100.809V30.7022L105.263 49.2281H108.563V13.0447H104.438Z" fill="white"/>
<path d="M119.607 49.2281V13.0447H115.154V49.2281H119.607Z" fill="white"/>
<path d="M131.524 50C135.252 50 137.627 46.4299 137.627 41.0748V37.3599C137.627 32.0048 135.252 28.4346 131.524 28.4346C130.468 28.4346 129.874 27.4698 129.874 26.0224V21.1979C129.874 19.7507 130.468 18.7857 131.524 18.7857C132.58 18.7857 133.174 19.7507 133.174 21.1979V23.1277H137.627V21.1979C137.627 15.8428 135.252 12.2727 131.524 12.2727C127.795 12.2727 125.419 15.8428 125.419 21.1979V26.0224C125.419 31.3776 127.795 34.9477 131.524 34.9477C132.58 34.9477 133.174 35.9126 133.174 37.3599V41.0748C133.174 42.5221 132.58 43.487 131.524 43.487C130.468 43.487 129.874 42.5221 129.874 41.0748V39.145H125.419V41.0748C125.419 46.4299 127.795 50 131.524 50Z" fill="white"/>
<path d="M144.878 49.4487H149.332V19.7783H152.961V13.2653H141.248V19.7783H144.878V49.4487Z" fill="white"/>
<path fill-rule="evenodd" clip-rule="evenodd" d="M36.1797 0H0V49.5455H36.1797V0ZM19.761 7.27264H24.2727V35.1987C24.2727 40.5341 21.8665 44.0908 18.0901 44.0908C14.3136 44.0908 11.9074 40.5341 11.9074 35.1987V7.27264H16.4191V35.1987C16.4191 36.6407 17.0206 37.602 18.0901 37.602C19.1594 37.602 19.761 36.6407 19.761 35.1987V7.27264Z" fill="white"/>
</svg>
